<svg width="20" height="20" viewBox="0 0 20 20" fill="none" xmlns="http://www.w3.org/2000/svg">
<mask id="mask0_3_1139" style="mask-type:alpha" maskUnits="userSpaceOnUse" x="0" y="0" width="20" height="20">
<rect width="20" height="20" fill="#D9D9D9"></rect>
</mask>
<g mask="url(#mask0_3_1139)">
<path d="M7.49998 11.6666H9.16665V7.4999H7.49998V11.6666ZM4.16665 10.4166C3.52776 10.0971 3.02081 9.63531 2.64581 9.03115C2.27081 8.42698 2.08331 7.77073 2.08331 7.0624C2.08331 6.02073 2.44095 5.13879 3.15623 4.41656C3.87151 3.69434 4.74998 3.33323 5.79165 3.33323C5.95831 3.33323 6.12845 3.34712 6.30206 3.3749C6.47567 3.40268 6.64581 3.4374 6.81248 3.47906C7.1597 2.90962 7.61109 2.46518 8.16665 2.14573C8.7222 1.82629 9.33331 1.66656 9.99998 1.66656C10.6666 1.66656 11.2778 1.82629 11.8333 2.14573C12.3889 2.46518 12.8403 2.90962 13.1875 3.47906C13.3541 3.4374 13.5208 3.40268 13.6875 3.3749C13.8541 3.34712 14.0278 3.33323 14.2083 3.33323C15.25 3.33323 16.1285 3.69434 16.8437 4.41656C17.559 5.13879 17.9166 6.02073 17.9166 7.0624C17.9166 7.77073 17.7291 8.42698 17.3541 9.03115C16.9791 9.63531 16.4722 10.0971 15.8333 10.4166V14.9999H4.16665V10.4166ZM10.8333 11.6666H12.5V7.4999H10.8333V11.6666ZM5.83331 13.3332H14.1666V9.39573L15.0833 8.9374C15.4444 8.75684 15.7291 8.50337 15.9375 8.17698C16.1458 7.85059 16.25 7.48601 16.25 7.08323C16.25 6.4999 16.0521 6.00684 15.6562 5.60406C15.2604 5.20129 14.7778 4.9999 14.2083 4.9999C14.0555 4.9999 13.9166 5.01379 13.7916 5.04156C13.6666 5.06934 13.5347 5.10406 13.3958 5.14573L12.4166 5.41656L11.7708 4.33323C11.5764 4.01379 11.3229 3.76726 11.0104 3.59365C10.6979 3.42004 10.3611 3.33323 9.99998 3.33323C9.63887 3.33323 9.30206 3.42004 8.98956 3.59365C8.67706 3.76726 8.42359 4.01379 8.22915 4.33323L7.58331 5.41656L6.58331 5.14573C6.44442 5.11795 6.30901 5.0867 6.17706 5.05198C6.04512 5.01726 5.9097 4.9999 5.77081 4.9999C5.20137 4.9999 4.7222 5.20129 4.33331 5.60406C3.94442 6.00684 3.74998 6.4999 3.74998 7.08323C3.74998 7.48601 3.85415 7.85059 4.06248 8.17698C4.27081 8.50337 4.55554 8.75684 4.91665 8.9374L5.83331 9.39573V13.3332ZM4.16665 14.9999H5.83331V16.6666H14.1666V14.9999H15.8333V18.3332H4.16665V14.9999Z" fill="#1C1B1F"></path>
</g>
</svg>