<svg width="20" height="20" viewBox="0 0 20 20" fill="none" xmlns="http://www.w3.org/2000/svg">
<mask id="mask0_3_1154" style="mask-type:alpha" maskUnits="userSpaceOnUse" x="0" y="0" width="20" height="20">
<rect width="20" height="20" fill="#D9D9D9"></rect>
</mask>
<g mask="url(#mask0_3_1154)">
<path d="M9.99998 19.1668C8.44443 19.1668 7.01387 18.8126 5.70831 18.1043C4.40276 17.3959 3.33331 16.4515 2.49998 15.2709V17.5001H0.833313V12.5001H5.83331V14.1668H3.77081C4.43748 15.1668 5.31595 15.9723 6.40623 16.5834C7.49651 17.1945 8.69443 17.5001 9.99998 17.5001C11.0416 17.5001 12.0173 17.3022 12.9271 16.9064C13.8368 16.5105 14.6285 15.9758 15.3021 15.3022C15.9757 14.6286 16.5104 13.8369 16.9062 12.9272C17.3021 12.0175 17.5 11.0418 17.5 10.0001H19.1666C19.1666 11.264 18.9271 12.4515 18.4479 13.5626C17.9687 14.6737 17.3125 15.6459 16.4791 16.4793C15.6458 17.3126 14.6736 17.9689 13.5625 18.448C12.4514 18.9272 11.2639 19.1668 9.99998 19.1668ZM9.24998 15.8334V14.7501C8.5972 14.5973 8.06595 14.3161 7.65623 13.9064C7.24651 13.4966 6.94442 12.9584 6.74998 12.2918L8.12498 11.7501C8.29165 12.3195 8.55206 12.7466 8.90623 13.0314C9.2604 13.3161 9.66665 13.4584 10.125 13.4584C10.5833 13.4584 10.9757 13.3508 11.3021 13.1355C11.6285 12.9202 11.7916 12.5834 11.7916 12.1251C11.7916 11.7223 11.6215 11.3959 11.2812 11.1459C10.941 10.8959 10.3333 10.6112 9.45831 10.2918C8.63887 10.0001 8.03818 9.65288 7.65623 9.2501C7.27429 8.84733 7.08331 8.31955 7.08331 7.66677C7.08331 7.09732 7.28123 6.57996 7.67706 6.11469C8.0729 5.64941 8.61109 5.34732 9.29165 5.20844V4.16677H10.75V5.20844C11.25 5.2501 11.7048 5.45149 12.1146 5.8126C12.5243 6.17371 12.8055 6.59732 12.9583 7.08344L11.625 7.6251C11.5139 7.30566 11.3333 7.0383 11.0833 6.82302C10.8333 6.60774 10.4861 6.5001 10.0416 6.5001C9.55554 6.5001 9.18401 6.60427 8.92706 6.8126C8.67012 7.02094 8.54165 7.30566 8.54165 7.66677C8.54165 8.02788 8.70137 8.3126 9.02081 8.52094C9.34026 8.72927 9.91665 8.97233 10.75 9.2501C11.75 9.61121 12.4166 10.0348 12.75 10.5209C13.0833 11.007 13.25 11.5418 13.25 12.1251C13.25 12.5279 13.1805 12.882 13.0416 13.1876C12.9028 13.4932 12.7187 13.7536 12.4896 13.9689C12.2604 14.1841 11.993 14.3577 11.6875 14.4897C11.3819 14.6216 11.0555 14.7223 10.7083 14.7918V15.8334H9.24998ZM0.833313 10.0001C0.833313 8.73621 1.0729 7.54871 1.55206 6.4376C2.03123 5.32649 2.68748 4.35427 3.52081 3.52094C4.35415 2.6876 5.32637 2.03135 6.43748 1.55219C7.54859 1.07302 8.73609 0.833435 9.99998 0.833435C11.5555 0.833435 12.9861 1.1876 14.2916 1.89594C15.5972 2.60427 16.6666 3.54871 17.5 4.72927V2.5001H19.1666V7.5001H14.1666V5.83344H16.2291C15.5625 4.83344 14.684 4.02788 13.5937 3.41677C12.5035 2.80566 11.3055 2.5001 9.99998 2.5001C8.95831 2.5001 7.98262 2.69802 7.0729 3.09385C6.16317 3.48969 5.37151 4.02441 4.6979 4.69802C4.02429 5.37163 3.48956 6.1633 3.09373 7.07302C2.6979 7.98274 2.49998 8.95844 2.49998 10.0001H0.833313Z" fill="#1C1B1F"></path>
</g>
</svg>