<svg width="20" height="20" viewBox="0 0 20 20" fill="none" xmlns="http://www.w3.org/2000/svg">
<mask id="mask0_3_1149" style="mask-type:alpha" maskUnits="userSpaceOnUse" x="0" y="0" width="20" height="20">
<rect width="20" height="20" fill="#D9D9D9"></rect>
</mask>
<g mask="url(#mask0_3_1149)">
<path d="M1.66669 17.5V2.5H10V5.83333H18.3334V12.5H16.6667V7.5H10V9.16667H11.6667V10.8333H10V12.5H11.6667V14.1667H10V15.8333H13.3334V17.5H1.66669ZM3.33335 15.8333H5.00002V14.1667H3.33335V15.8333ZM3.33335 12.5H5.00002V10.8333H3.33335V12.5ZM3.33335 9.16667H5.00002V7.5H3.33335V9.16667ZM3.33335 5.83333H5.00002V4.16667H3.33335V5.83333ZM6.66669 15.8333H8.33335V14.1667H6.66669V15.8333ZM6.66669 12.5H8.33335V10.8333H6.66669V12.5ZM6.66669 9.16667H8.33335V7.5H6.66669V9.16667ZM6.66669 5.83333H8.33335V4.16667H6.66669V5.83333ZM16.6667 19.1667V17.5H15V15.8333H16.6667V14.1667H18.3334V15.8333H20V17.5H18.3334V19.1667H16.6667ZM13.3334 10.8333V9.16667H15V10.8333H13.3334ZM13.3334 14.1667V12.5H15V14.1667H13.3334Z" fill="#1C1B1F"></path>
</g>
</svg>