<svg width="20" height="20" viewBox="0 0 20 20" fill="none" xmlns="http://www.w3.org/2000/svg">
<mask id="mask0_3_1134" style="mask-type:alpha" maskUnits="userSpaceOnUse" x="0" y="0" width="20" height="20">
<rect width="20" height="20" fill="#D9D9D9"></rect>
</mask>
<g mask="url(#mask0_3_1134)">
<path d="M4.99998 13.3332C4.54165 13.3332 4.14929 13.17 3.8229 12.8436C3.49651 12.5173 3.33331 12.1249 3.33331 11.6666C3.33331 11.2082 3.49651 10.8159 3.8229 10.4895C4.14929 10.1631 4.54165 9.9999 4.99998 9.9999C5.45831 9.9999 5.85067 10.1631 6.17706 10.4895C6.50345 10.8159 6.66665 11.2082 6.66665 11.6666C6.66665 12.1249 6.50345 12.5173 6.17706 12.8436C5.85067 13.17 5.45831 13.3332 4.99998 13.3332ZM15 13.3332C14.5416 13.3332 14.1493 13.17 13.8229 12.8436C13.4965 12.5173 13.3333 12.1249 13.3333 11.6666C13.3333 11.2082 13.4965 10.8159 13.8229 10.4895C14.1493 10.1631 14.5416 9.9999 15 9.9999C15.4583 9.9999 15.8507 10.1631 16.1771 10.4895C16.5035 10.8159 16.6666 11.2082 16.6666 11.6666C16.6666 12.1249 16.5035 12.5173 16.1771 12.8436C15.8507 13.17 15.4583 13.3332 15 13.3332ZM9.99998 12.4999C9.41665 12.4999 8.92359 12.2985 8.52081 11.8957C8.11804 11.493 7.91665 10.9999 7.91665 10.4166C7.91665 9.83323 8.11804 9.34018 8.52081 8.9374C8.92359 8.53462 9.41665 8.33323 9.99998 8.33323C10.5833 8.33323 11.0764 8.53462 11.4791 8.9374C11.8819 9.34018 12.0833 9.83323 12.0833 10.4166C12.0833 10.9999 11.8819 11.493 11.4791 11.8957C11.0764 12.2985 10.5833 12.4999 9.99998 12.4999ZM5.91665 17.4999C6.11109 16.5416 6.58679 15.7464 7.34373 15.1145C8.10068 14.4825 8.98609 14.1666 9.99998 14.1666C11.0139 14.1666 11.8993 14.4825 12.6562 15.1145C13.4132 15.7464 13.8889 16.5416 14.0833 17.4999H5.91665ZM1.66665 17.4999C1.66665 16.5832 1.99304 15.7985 2.64581 15.1457C3.29859 14.493 4.08331 14.1666 4.99998 14.1666C5.23609 14.1666 5.45831 14.1874 5.66665 14.2291C5.87498 14.2707 6.07637 14.3332 6.27081 14.4166C5.85415 14.8193 5.50692 15.2811 5.22915 15.802C4.95137 16.3228 4.76387 16.8888 4.66665 17.4999H1.66665ZM15.3333 17.4999C15.2361 16.8888 15.0486 16.3228 14.7708 15.802C14.493 15.2811 14.1458 14.8193 13.7291 14.4166C13.9236 14.3332 14.125 14.2707 14.3333 14.2291C14.5416 14.1874 14.7639 14.1666 15 14.1666C15.9166 14.1666 16.7014 14.493 17.3541 15.1457C18.0069 15.7985 18.3333 16.5832 18.3333 17.4999H15.3333ZM1.83331 9.9999L0.833313 8.66657L9.99998 1.66656L13.3333 4.20823V2.4999H15.8333V6.1249L19.1666 8.66657L18.1666 9.9999L9.99998 3.77073L1.83331 9.9999Z" fill="#1C1B1F"></path>
</g>
</svg>