<svg width="20" height="20" viewBox="0 0 20 20" fill="none" xmlns="http://www.w3.org/2000/svg">
<mask id="mask0_3_1159" style="mask-type:alpha" maskUnits="userSpaceOnUse" x="0" y="0" width="20" height="20">
<rect width="20" height="20" fill="#D9D9D9"></rect>
</mask>
<g mask="url(#mask0_3_1159)">
<path d="M9.99998 10.0001C9.08331 10.0001 8.29859 9.67371 7.64581 9.02093C6.99304 8.36816 6.66665 7.58343 6.66665 6.66677C6.66665 5.7501 6.99304 4.96538 7.64581 4.3126C8.29859 3.65982 9.08331 3.33344 9.99998 3.33344C10.9166 3.33344 11.7014 3.65982 12.3541 4.3126C13.0069 4.96538 13.3333 5.7501 13.3333 6.66677C13.3333 7.58343 13.0069 8.36816 12.3541 9.02093C11.7014 9.67371 10.9166 10.0001 9.99998 10.0001ZM3.33331 16.6668V14.3334C3.33331 13.8612 3.45137 13.4272 3.68748 13.0314C3.92359 12.6355 4.24998 12.3334 4.66665 12.1251C5.49998 11.7084 6.36456 11.389 7.2604 11.1668C8.15623 10.9445 9.06942 10.8334 9.99998 10.8334C10.9305 10.8334 11.8437 10.9445 12.7396 11.1668C13.6354 11.389 14.5 11.7084 15.3333 12.1251C15.75 12.3334 16.0764 12.6355 16.3125 13.0314C16.5486 13.4272 16.6666 13.8612 16.6666 14.3334V16.6668H3.33331ZM9.99998 8.33343C10.4583 8.33343 10.8507 8.17024 11.1771 7.84385C11.5035 7.51746 11.6666 7.1251 11.6666 6.66677C11.6666 6.20843 11.5035 5.81607 11.1771 5.48968C10.8507 5.1633 10.4583 5.0001 9.99998 5.0001C9.54165 5.0001 9.14928 5.1633 8.8229 5.48968C8.49651 5.81607 8.33331 6.20843 8.33331 6.66677C8.33331 7.1251 8.49651 7.51746 8.8229 7.84385C9.14928 8.17024 9.54165 8.33343 9.99998 8.33343ZM13.3333 13.0834V15.0001H15V14.3334C15 14.1807 14.9653 14.0418 14.8958 13.9168C14.8264 13.7918 14.7222 13.6945 14.5833 13.6251C14.3889 13.514 14.184 13.4133 13.9687 13.323C13.7535 13.2327 13.5416 13.1529 13.3333 13.0834ZM8.33331 12.6459V13.7501H11.6666V12.6459C11.3889 12.5904 11.1111 12.5522 10.8333 12.5314C10.5555 12.5105 10.2778 12.5001 9.99998 12.5001C9.7222 12.5001 9.44442 12.5105 9.16665 12.5314C8.88887 12.5522 8.61109 12.5904 8.33331 12.6459ZM4.99998 15.0001H6.66665V13.0834C6.45831 13.1529 6.24651 13.2327 6.03123 13.323C5.81595 13.4133 5.61109 13.514 5.41665 13.6251C5.27776 13.6945 5.17359 13.7918 5.10415 13.9168C5.0347 14.0418 4.99998 14.1807 4.99998 14.3334V15.0001Z" fill="#1C1B1F"></path>
</g>
</svg>