<svg width="24" height="24" viewBox="0 0 24 24" fill="none" xmlns="http://www.w3.org/2000/svg">
<path d="M8.924 11.064C9.06015 10.9203 9.12822 10.7518 9.12822 10.5585C9.12822 10.3652 9.06015 10.1967 8.924 10.0531C8.7877 9.90955 8.62785 9.83779 8.44444 9.83779C8.26104 9.83779 8.10119 9.90955 7.96489 10.0531C7.82874 10.1967 7.76067 10.3652 7.76067 10.5585C7.76067 10.7518 7.82874 10.9203 7.96489 11.064C8.10119 11.2075 8.26104 11.2793 8.44444 11.2793C8.62785 11.2793 8.7877 11.2075 8.924 11.064ZM12.4796 11.064C12.6157 10.9203 12.6838 10.7518 12.6838 10.5585C12.6838 10.3652 12.6157 10.1967 12.4796 10.0531C12.3433 9.90955 12.1834 9.83779 12 9.83779C11.8166 9.83779 11.6567 9.90955 11.5204 10.0531C11.3843 10.1967 11.3162 10.3652 11.3162 10.5585C11.3162 10.7518 11.3843 10.9203 11.5204 11.064C11.6567 11.2075 11.8166 11.2793 12 11.2793C12.1834 11.2793 12.3433 11.2075 12.4796 11.064ZM16.0351 11.064C16.1713 10.9203 16.2393 10.7518 16.2393 10.5585C16.2393 10.3652 16.1713 10.1967 16.0351 10.0531C15.8988 9.90955 15.739 9.83779 15.5556 9.83779C15.3721 9.83779 15.2123 9.90955 15.076 10.0531C14.9399 10.1967 14.8718 10.3652 14.8718 10.5585C14.8718 10.7518 14.9399 10.9203 15.076 11.064C15.2123 11.2075 15.3721 11.2793 15.5556 11.2793C15.739 11.2793 15.8988 11.2075 16.0351 11.064ZM4 20V5.51361C4 5.08231 4.13704 4.72222 4.41111 4.43333C4.68519 4.14444 5.02681 4 5.436 4H18.564C18.9732 4 19.3148 4.14444 19.5889 4.43333C19.863 4.72222 20 5.08231 20 5.51361V15.6034C20 16.0347 19.863 16.3948 19.5889 16.6837C19.3148 16.9726 18.9732 17.1171 18.564 17.1171H6.73511L4 20ZM6.35556 16.1801H18.564C18.7009 16.1801 18.8263 16.1201 18.9402 16C19.0541 15.8799 19.1111 15.7477 19.1111 15.6034V5.51361C19.1111 5.36933 19.0541 5.23714 18.9402 5.11706C18.8263 4.99697 18.7009 4.93693 18.564 4.93693H5.436C5.29911 4.93693 5.1737 4.99697 5.05978 5.11706C4.94585 5.23714 4.88889 5.36933 4.88889 5.51361V17.7207L6.35556 16.1801Z" fill="#231F20"></path>
</svg>